<?xml version="1.0" encoding="UTF-8" standalone="no"?>
<svg
   version="1.1"
   width="64"
   height="64"
   id="svg6333"
   xmlns:xlink="http://www.w3.org/1999/xlink"
   xmlns="http://www.w3.org/2000/svg"
   xmlns:svg="http://www.w3.org/2000/svg"
   xmlns:rdf="http://www.w3.org/1999/02/22-rdf-syntax-ns#"
   xmlns:cc="http://creativecommons.org/ns#"
   xmlns:dc="http://purl.org/dc/elements/1.1/">
  <defs
     id="defs6335">
    <linearGradient
       id="linearGradient10">
      <stop
         style="stop-color:#fafafa;stop-opacity:1;"
         offset="0"
         id="stop10" />
      <stop
         style="stop-color:#d4d4d4;stop-opacity:1"
         offset="1"
         id="stop11" />
    </linearGradient>
    <linearGradient
       id="linearGradient8">
      <stop
         style="stop-color:#64baff;stop-opacity:1"
         offset="0"
         id="stop8" />
      <stop
         style="stop-color:#3689e6;stop-opacity:1"
         offset="1"
         id="stop9" />
    </linearGradient>
    <linearGradient
       id="linearGradient6">
      <stop
         style="stop-color:#fafafa;stop-opacity:1"
         offset="0"
         id="stop6" />
      <stop
         style="stop-color:#d4d4d4;stop-opacity:1"
         offset="1"
         id="stop7" />
    </linearGradient>
    <linearGradient
       id="linearGradient872">
      <stop
         style="stop-color:#fe9ab8;stop-opacity:1"
         offset="0"
         id="stop868" />
      <stop
         style="stop-color:#f4679d;stop-opacity:1"
         offset="1"
         id="stop870" />
    </linearGradient>
    <linearGradient
       x1="23.99999"
       y1="4.999989"
       x2="23.99999"
       y2="43"
       id="linearGradient3381-5-4"
       xlink:href="#linearGradient3924-2-2-5-8"
       gradientUnits="userSpaceOnUse"
       gradientTransform="matrix(1.4324324,0,0,1.4362832,-2.378381,-2.4707782)" />
    <linearGradient
       id="linearGradient3924-2-2-5-8">
      <stop
         id="stop3926-9-4-9-6"
         style="stop-color:#ffffff;stop-opacity:1"
         offset="0" />
      <stop
         id="stop3928-9-8-6-5"
         style="stop-color:#ffffff;stop-opacity:0.23529412"
         offset="0.06316455" />
      <stop
         id="stop3930-3-5-1-7"
         style="stop-color:#ffffff;stop-opacity:0.15686275"
         offset="0.95056331" />
      <stop
         id="stop3932-8-0-4-8"
         style="stop-color:#ffffff;stop-opacity:0.39215687"
         offset="1" />
    </linearGradient>
    <radialGradient
       cx="4.9929786"
       cy="43.5"
       r="2.5"
       fx="4.9929786"
       fy="43.5"
       id="radialGradient3337-2-2"
       xlink:href="#linearGradient3688-166-749-4-0-3-8"
       gradientUnits="userSpaceOnUse"
       gradientTransform="matrix(2.4045407,0,0,0.99999998,41.985755,15.500001)" />
    <linearGradient
       id="linearGradient3688-166-749-4-0-3-8">
      <stop
         id="stop2883-4-0-1-8"
         style="stop-color:#181818;stop-opacity:1"
         offset="0" />
      <stop
         id="stop2885-9-2-9-6"
         style="stop-color:#181818;stop-opacity:0"
         offset="1" />
    </linearGradient>
    <radialGradient
       cx="4.9929786"
       cy="43.5"
       r="2.5"
       fx="4.9929786"
       fy="43.5"
       id="radialGradient3339-1-4"
       xlink:href="#linearGradient3688-464-309-9-2-4-2"
       gradientUnits="userSpaceOnUse"
       gradientTransform="matrix(2.4045407,0,0,0.99999998,-22.014244,-102.5)" />
    <linearGradient
       id="linearGradient3688-464-309-9-2-4-2">
      <stop
         id="stop2889-7-9-6-9"
         style="stop-color:#181818;stop-opacity:1"
         offset="0" />
      <stop
         id="stop2891-6-6-1-7"
         style="stop-color:#181818;stop-opacity:0"
         offset="1" />
    </linearGradient>
    <linearGradient
       id="linearGradient3702-501-757-8-4-1-1">
      <stop
         id="stop2895-8-9-9-1"
         style="stop-color:#181818;stop-opacity:0"
         offset="0" />
      <stop
         id="stop2897-7-8-7-7"
         style="stop-color:#181818;stop-opacity:1"
         offset="0.5" />
      <stop
         id="stop2899-4-5-1-5"
         style="stop-color:#181818;stop-opacity:0"
         offset="1" />
    </linearGradient>
    <linearGradient
       x1="25.058096"
       y1="47.027729"
       x2="25.058096"
       y2="39.999443"
       id="linearGradient6394"
       xlink:href="#linearGradient3702-501-757-8-4-1-1"
       gradientUnits="userSpaceOnUse"
       gradientTransform="matrix(1.5714286,0,0,0.7142857,-5.7142853,27.928572)" />
    <linearGradient
       xlink:href="#linearGradient872"
       id="linearGradient856-2-3"
       x1="23.528315"
       y1="6.08318"
       x2="23.528315"
       y2="44.23307"
       gradientUnits="userSpaceOnUse"
       gradientTransform="matrix(1.4102564,0,0,1.4102564,-1.8461748,-3.2564048)" />
    <linearGradient
       xlink:href="#linearGradient6"
       id="linearGradient7"
       x1="-34.927326"
       y1="-48.838966"
       x2="-34.195885"
       y2="-48.663349"
       gradientUnits="userSpaceOnUse"
       gradientTransform="matrix(0.05649903,-2.1383799,1.6822169,-0.05638009,102.69279,-34.493897)" />
    <linearGradient
       xlink:href="#linearGradient8"
       id="linearGradient9"
       x1="45.372997"
       y1="26.817814"
       x2="38.291348"
       y2="43.914425"
       gradientUnits="userSpaceOnUse" />
    <linearGradient
       xlink:href="#linearGradient10"
       id="linearGradient11"
       x1="43.092468"
       y1="46.934193"
       x2="40.430935"
       y2="59.435131"
       gradientUnits="userSpaceOnUse" />
  </defs>
  <metadata
     id="metadata6338">
    <rdf:RDF>
      <cc:Work
         rdf:about="">
        <dc:format>image/svg+xml</dc:format>
        <dc:type
           rdf:resource="http://purl.org/dc/dcmitype/StillImage" />
      </cc:Work>
    </rdf:RDF>
  </metadata>
  <rect
     style="opacity:0.6;fill:url(#radialGradient3337-2-2);fill-opacity:1;stroke:none;stroke-width:1.06199"
     id="rect2801-5-5-7-9"
     y="56.5"
     x="54"
     height="5"
     width="6" />
  <rect
     style="opacity:0.6;fill:url(#radialGradient3339-1-4);fill-opacity:1;stroke:none;stroke-width:1.06199"
     id="rect3696-3-0-3-7"
     transform="scale(-1)"
     y="-61.5"
     x="-10"
     height="5"
     width="6" />
  <rect
     style="opacity:0.6;fill:url(#linearGradient6394);fill-opacity:1;stroke:none;stroke-width:1.06199"
     id="rect3700-5-6-8-4"
     y="56.5"
     x="10"
     height="5.0000005"
     width="44" />
  <path
     id="path1-0"
     style="fill:#910e38;stroke:none;stroke-width:13;-inkscape-stroke:none;opacity:0.15"
     d="M 58.533203 7.2304688 C 52.252523 8.2442934 46.37508 10.962924 40.927734 14.166016 C 40.43048 14.69694 39.821091 14.464371 39.21875 14.28125 C 31.81517 12.476498 24.197788 10.956405 16.539062 11.496094 C 12.28984 11.807197 7.9973525 13.022919 4.5 15.490234 L 4.5 33.914062 C 5.5014243 35.616983 6.6338272 37.243241 7.8886719 38.767578 C 13.753901 45.967006 21.630773 51.213283 29.796875 55.46875 C 32.604125 56.916866 35.464613 58.262258 38.371094 59.5 L 53.5 59.5 C 56.823997 59.5 59.5 56.823997 59.5 53.5 L 59.5 10.5 C 59.5 9.29134 59.143329 8.1702772 58.533203 7.2304688 z " />
  <rect
     style="color:#000000;display:inline;overflow:visible;visibility:visible;opacity:1;fill:url(#linearGradient856-2-3);fill-opacity:1;fill-rule:nonzero;stroke:#bc245d;stroke-width:1;stroke-opacity:0.5;marker:none;enable-background:accumulate"
     id="rect5505-21-1-5"
     y="4.5000019"
     x="4.4999986"
     ry="6"
     rx="6"
     height="55"
     width="55" />
  <path
     id="path1-6-5"
     style="opacity:0.07;fill:#910e38;stroke:none;stroke-width:13;-inkscape-stroke:none"
     d="M 59.023438 8.1484375 L 58.875 8.171875 C 52.49786 9.1325941 46.536664 11.87979 41.013672 15.115234 C 40.511193 15.610662 39.927918 15.552078 39.316406 15.306641 C 32.042899 13.526791 24.568045 12.022685 17.041016 12.464844 C 12.623076 12.717413 8.134662 13.923966 4.5 16.490234 L 4.5 34.949219 C 9.072423 42.536057 16.051742 48.347079 23.53125 52.931641 C 27.567285 55.402623 31.784145 57.561402 36.099609 59.5 L 53.5 59.5 C 56.823997 59.5 59.5 56.823997 59.5 53.5 L 59.5 10.5 C 59.5 9.6643301 59.329483 8.8699696 59.023438 8.1484375 z " />
  <path
     id="path1-6"
     style="fill:#910e38;stroke:none;stroke-width:13;-inkscape-stroke:none;opacity:0.15"
     d="M 59.029297 9.1601562 C 53.778644 9.8775069 47.166049 12.477271 40.441406 16.626953 C 23.317903 12.165358 11.838359 12.07374 4.5 17.736328 L 4.5 32.873047 C 4.8232706 33.486483 5.169245 34.09523 5.5351562 34.701172 A 49.381883 10.140737 23.815043 0 0 5.5253906 34.699219 C 5.9234028 35.358377 6.353065 36.011905 6.8027344 36.662109 C 7.2229827 37.269773 7.668382 37.872888 8.1347656 38.472656 C 8.2042076 38.561986 8.2791324 38.651085 8.3496094 38.740234 C 8.7388618 39.23248 9.1393908 39.722128 9.5605469 40.208984 C 9.721046 40.394592 9.8914514 40.578852 10.056641 40.763672 C 10.422567 41.172929 10.794423 41.580947 11.183594 41.986328 C 11.359381 42.169505 11.54403 42.350822 11.724609 42.533203 C 12.118793 42.931184 12.520256 43.328478 12.9375 43.722656 C 13.144713 43.918472 13.359305 44.11372 13.572266 44.308594 C 13.978553 44.680262 14.392909 45.049742 14.820312 45.417969 C 15.072412 45.635239 15.33032 45.852294 15.589844 46.068359 C 16.009375 46.417519 16.437842 46.765325 16.876953 47.111328 C 17.143957 47.321775 17.415137 47.530962 17.689453 47.740234 C 18.144063 48.086967 18.609112 48.431891 19.083984 48.775391 C 19.384686 48.99296 19.687184 49.211468 19.996094 49.427734 C 20.459721 49.752227 20.935693 50.074938 21.417969 50.396484 C 21.755092 50.621315 22.093126 50.844975 22.439453 51.068359 C 22.937176 51.389321 23.449903 51.707427 23.966797 52.025391 C 24.317063 52.2409 24.664282 52.457748 25.023438 52.671875 C 25.54199 52.980968 26.078 53.28755 26.615234 53.59375 C 27.006874 53.817011 27.393259 54.041956 27.794922 54.263672 C 28.398952 54.597042 29.025446 54.925997 29.652344 55.255859 C 29.986312 55.431606 30.311824 55.608456 30.652344 55.783203 C 31.303109 56.117137 31.977466 56.447074 32.652344 56.777344 C 33.041621 56.967864 33.420983 57.160314 33.818359 57.349609 C 34.364799 57.609888 34.934235 57.867044 35.496094 58.125 C 36.036742 58.373242 36.566034 58.62306 37.121094 58.869141 C 37.59923 59.081099 38.103154 59.289537 38.591797 59.5 L 53.5 59.5 C 56.823997 59.5 59.5 56.823997 59.5 53.5 L 59.5 11.5 C 59.500005 10.669003 59.332109 9.8784659 59.029297 9.1601562 z " />
  <rect
     style="opacity:0.5;fill:none;stroke:url(#linearGradient3381-5-4);stroke-width:1;stroke-linecap:round;stroke-linejoin:round;stroke-miterlimit:4;stroke-dasharray:none;stroke-dashoffset:0;stroke-opacity:1"
     id="rect6741-5-0-2-3"
     y="5.4287739"
     x="5.4999986"
     ry="5"
     height="53.142479"
     width="53"
     rx="5" />
  <path
     id="path1"
     style="opacity:1;fill:url(#linearGradient9);stroke:none;stroke-width:13;-inkscape-stroke:none;fill-opacity:1"
     d="M 59.029297 8.1601562 C 53.778634 8.8775083 47.166061 11.477263 40.441406 15.626953 C 23.317869 11.165348 11.838373 11.073728 4.5 16.736328 C 3.1521599 17.776379 1.9279605 18.986962 0.8515625 20.425781 C 1.3711281 24.372274 2.558691 28.18923 4.5 31.873047 C 9.8942098 42.10907 21.159324 51.306278 40.478516 59.308594 C 40.642639 59.376579 40.804741 59.432846 40.96875 59.5 L 53.5 59.5 C 56.823994 59.5 59.5 56.823994 59.5 53.5 L 59.5 10.5 C 59.5 9.6690016 59.332109 8.8784673 59.029297 8.1601562 z " />
  <path
     id="path2"
     style="opacity:1;fill:url(#linearGradient11);stroke:none;stroke-width:12.9999;-inkscape-stroke:none;fill-opacity:1"
     d="M 5.5253906 33.699219 C 11.265404 43.205413 22.314803 51.784895 40.478516 59.308594 C 40.63773 59.374545 40.795974 59.434832 40.955078 59.5 L 53.5 59.5 C 56.50155 59.5 58.968343 57.316106 59.419922 54.445312 A 49.381883 10.140737 23.815043 0 0 42.335938 45.958984 A 49.381883 10.140737 23.815043 0 0 36.863281 43.603516 A 49.381883 10.140737 23.815043 0 0 5.5253906 33.699219 z " />
  <ellipse
     style="opacity:1;fill:#0e141f;stroke:none;stroke-width:13.0003;-inkscape-stroke:none"
     id="path3"
     cx="29.667301"
     cy="24.548178"
     rx="6.6145649"
     ry="3.2702003"
     transform="matrix(0.95921819,0.28266669,-0.27301773,0.962009,0,0)" />
  <ellipse
     style="opacity:1;fill:#fafafa;stroke:none;stroke-width:13.0016;-inkscape-stroke:none"
     id="path4"
     cx="34.714478"
     cy="19.428816"
     rx="1.6490663"
     ry="1.4187154"
     transform="matrix(0.91963455,0.39277512,-0.37276357,0.92792636,0,0)" />
  <path
     id="path5"
     style="fill:#fe9ab8;stroke:none;stroke-width:1px;stroke-linecap:butt;stroke-linejoin:miter;stroke-opacity:1"
     d="M 9.2714844 38.878906 C 12.319119 42.472822 16.246035 45.919513 21.140625 49.212891 C 25.751075 46.596289 31.095703 45.523438 31.095703 45.523438 C 23.886689 42.160941 14.903506 40.01087 9.2714844 38.878906 z " />
  <path
     id="path6-6-6-6"
     style="fill:url(#linearGradient7);fill-opacity:1;stroke:none;stroke-width:13;-inkscape-stroke:none"
     d="M 9.2714844 38.880859 C 10.269083 40.057194 11.36363 41.216753 12.552734 42.361328 A 2.4917281 3.7806051 4.1643582 0 0 13.478516 39.792969 C 12.716166 39.616038 11.975037 39.449799 11.269531 39.296875 C 10.565483 39.144266 9.8955378 39.00629 9.2714844 38.880859 z M 13.779297 39.861328 A 2.4917281 3.7806051 4.1643582 0 0 13.712891 40.521484 A 2.4917281 3.7806051 4.1643582 0 0 16.111328 44.210938 A 2.4917281 3.7806051 4.1643582 0 0 18.632812 41.101562 C 17.366317 40.751779 16.132502 40.430711 14.947266 40.140625 C 14.552187 40.04393 14.162988 39.951305 13.779297 39.861328 z M 19.103516 41.230469 A 2.4917281 3.7806051 4.1643582 0 0 19.056641 41.703125 A 2.4917281 3.7806051 4.1643582 0 0 21.457031 45.396484 A 2.4917281 3.7806051 4.1643582 0 0 23.888672 42.693359 C 23.751955 42.647617 23.615282 42.603574 23.478516 42.558594 C 23.185531 42.462144 22.892505 42.364725 22.599609 42.271484 C 22.345996 42.190979 22.092993 42.1132 21.839844 42.035156 C 21.721315 41.998478 21.602751 41.961937 21.484375 41.925781 C 21.460814 41.918613 21.437617 41.911445 21.414062 41.904297 C 21.038088 41.790199 20.662694 41.679296 20.289062 41.570312 C 19.892024 41.454502 19.496646 41.340823 19.103516 41.230469 z M 24.445312 42.882812 A 2.4917281 3.7806051 4.1643582 0 0 26.845703 46.521484 A 2.4917281 3.7806051 4.1643582 0 0 29.023438 44.613281 C 28.651216 44.457509 28.274165 44.304412 27.896484 44.154297 C 27.141124 43.854068 26.376299 43.566129 25.605469 43.289062 C 25.294038 43.177122 24.980952 43.069015 24.667969 42.960938 C 24.59354 42.935257 24.519796 42.908283 24.445312 42.882812 z " />
</svg>
