<?xml version="1.0" encoding="UTF-8" standalone="no"?>
<svg
   height="16"
   width="16"
   version="1.1"
   id="svg6"
   xml:space="preserve"
   xmlns="http://www.w3.org/2000/svg"
   xmlns:svg="http://www.w3.org/2000/svg"><defs
     id="defs10" /><path
     id="path2"
     style="fill:#555761;fill-opacity:1;stroke:none;stroke-width:1;stroke-linecap:round;-inkscape-stroke:none"
     d="M 8 0 A 7.9999995 7.9999995 0 0 0 0 8 A 7.9999995 7.9999995 0 0 0 8 16 A 7.9999995 7.9999995 0 0 0 16 8 A 7.9999995 7.9999995 0 0 0 8 0 z M 8 1 A 7 7 0 0 1 15 8 A 7 7 0 0 1 8 15 A 7 7 0 0 1 1 8 A 7 7 0 0 1 8 1 z " /></svg>
