<?xml version="1.0" encoding="UTF-8" standalone="no"?>
<svg
   height="16"
   width="16"
   version="1.1"
   id="svg6"
   xml:space="preserve"
   xmlns="http://www.w3.org/2000/svg"
   xmlns:svg="http://www.w3.org/2000/svg"><defs
     id="defs10" /><path
     style="color:#000000;fill:#555761;stroke-linecap:round;-inkscape-stroke:none"
     d="M 15,3 C 13.168125,3 11.738975,3.6158428 10.583984,4.5117187 9.4289942,5.4075947 8.5309738,6.566947 7.6503906,7.6914062 6.7698075,8.8158655 5.9079202,9.9054255 4.8730469,10.697266 3.8381735,11.489106 2.6459483,12 1,12 A 0.49999899,0.49999899 0 0 0 0.5,12.5 0.49999899,0.49999899 0 0 0 1,13 C 2.8598771,13 4.3099133,12.385893 5.4804687,11.490234 6.6510242,10.594576 7.5560717,9.4341323 8.4375,8.3085938 9.3189283,7.1830552 10.176682,6.0924036 11.197266,5.3007812 12.217849,4.5091589 13.38576,4 15,4 A 0.49999899,0.49999899 0 0 0 15.5,3.5 0.49999899,0.49999899 0 0 0 15,3 Z"
     id="path1" /></svg>
