<?xml version="1.0" encoding="UTF-8" standalone="no"?>
<svg
   height="16"
   width="16"
   version="1.1"
   id="svg6"
   xml:space="preserve"
   xmlns="http://www.w3.org/2000/svg"
   xmlns:svg="http://www.w3.org/2000/svg"><defs
     id="defs10" /><path
     style="color:#000000;fill:#555761;stroke-linecap:round;-inkscape-stroke:none;font-variation-settings:normal;opacity:1;vector-effect:none;fill-opacity:1;stroke-width:1;stroke-linejoin:miter;stroke-miterlimit:4;stroke-dasharray:none;stroke-dashoffset:0;stroke-opacity:1;stop-color:#000000;stop-opacity:1"
     d="M 8,3 C 6.8573568,3 6.0582435,3.7455999 5.5683594,4.671875 5.0784753,5.5981501 4.7874949,6.7440151 4.4609375,7.859375 4.1343801,8.9747349 3.7729545,10.05479 3.2441406,10.806641 2.7153267,11.558491 2.0870537,12 1,12 A 0.49999899,0.49999899 0 0 0 0.5,12.5 0.49999899,0.49999899 0 0 0 1,13 c 1.3898499,0 2.4044125,-0.683493 3.0625,-1.619141 0.6580875,-0.935647 1.0271734,-2.1055961 1.359375,-3.240234 0.3322016,-1.1346379 0.6267046,-2.2387767 1.0292969,-3 C 6.8537641,4.3794017 7.2545896,4 8,4 8.7454104,4 9.1438988,4.3775892 9.5449219,5.1386719 9.945945,5.8997546 10.239395,7.0058042 10.570313,8.140625 c 0.330917,1.1348208 0.69999,2.30431 1.359375,3.240234 C 12.589072,12.316783 13.605493,13 15,13 A 0.49999899,0.49999899 0 0 0 15.5,12.5 0.49999899,0.49999899 0 0 0 15,12 C 13.906998,12 13.277552,11.558215 12.748047,10.806641 12.218542,10.055066 11.85644,8.9745519 11.53125,7.859375 11.20606,6.7441981 10.917826,5.6002437 10.429688,4.6738281 9.9415486,3.7474125 9.1426432,3 8,3 Z"
     id="path1-5" /></svg>
