<?xml version="1.0" encoding="UTF-8" standalone="no"?>
<svg
   height="16"
   width="16"
   version="1.1"
   id="svg6"
   xml:space="preserve"
   xmlns="http://www.w3.org/2000/svg"
   xmlns:svg="http://www.w3.org/2000/svg"><defs
     id="defs10" /><path
     style="color:#000000;fill:#555761;stroke-linecap:round;-inkscape-stroke:none"
     d="M 15,13 C 13.168125,13 11.738975,12.384157 10.583984,11.488281 9.4289942,10.592405 8.5309738,9.433053 7.6503906,8.3085938 6.7698075,7.1841345 5.9079202,6.0945745 4.8730469,5.302734 3.8381735,4.510894 2.6459483,4 1,4 A 0.49999899,0.49999899 0 0 1 0.5,3.5 0.49999899,0.49999899 0 0 1 1,3 C 2.8598771,3 4.3099133,3.614107 5.4804687,4.509766 6.6510242,5.405424 7.5560717,6.5658677 8.4375,7.6914062 9.3189283,8.8169448 10.176682,9.9075964 11.197266,10.699219 12.217849,11.490841 13.38576,12 15,12 A 0.49999899,0.49999899 0 0 1 15.5,12.5 0.49999899,0.49999899 0 0 1 15,13 Z"
     id="path1" /></svg>
